#!OML:ASF G:\ViconDB\ViconDB\414\test\team2\shane.ASF
:FULLY-SPECIFIED
:DEGREES
294
root 0.756246 16.2942 32.3794 -13.1296 8.04715 -8.45929
lowerback 9.33322 -3.78714 2.55275
upperback 3.38209 -4.69176 4.6952
thorax -1.50752 -2.35511 3.9277
lowerneck -20.5873 3.69627 -4.27792
upperneck 23.464 6.21708 1.55596
head 10.781 2.64644 2.20398
rclavicle 4.49875e-014 -7.15625e-014
rhumerus -69.3818 -7.18688 -47.5627
rradius 24.8754
rwrist 48.6869
rhand -26.3114 -7.38889
rfingers 7.12502
rthumb 0.245005 -37.3685
lclavicle 4.49875e-014 -7.15625e-014
lhumerus -17.6024 -28.7769 93.7549
lradius 82.1573
lwrist -17.1751
lhand -45.3204 4.4646
lfingers 7.12502
lthumb -18.092 33.6432
rfemur -16.8222 -19.7176 22.0746
rtibia 34.0886
rfoot -15.0509 9.73774
rtoes -12.2635
lfemur 40.3786 -3.31872 -4.64776
ltibia -3.81667e-014
lfoot -20.5438 -12.7744
ltoes -25.0015
295
root 0.736346 16.3001 32.5956 -13.0213 8.20683 -8.65778
lowerback 9.29737 -3.73694 3.0915
upperback 3.13999 -4.56048 4.79859
thorax -1.7787 -2.28504 3.73146
lowerneck -20.1288 4.40244 -3.74502
upperneck 23.634 7.16468 1.04548
head 10.7678 3.06133 2.06278
rclavicle 3.38058e-014 -3.18055e-014
rhumerus -69.7032 -8.04374 -45.8669
rradius 24.237
rwrist 51.2719
rhand -26.2779 -7.41496
rfingers 7.12502
rthumb 0.277377 -37.3945
lclavicle 3.38058e-014 -3.18055e-014
lhumerus -18.366 -28.5322 94.607
lradius 81.7442
lwrist -17.2426
lhand -45.2875 4.05654
lfingers 7.12502
lthumb -18.0603 33.238
rfemur -16.4198 -19.1228 22.2122
rtibia 34.7055
rfoot -14.4234 6.65088
rtoes -14.688
lfemur 40.7232 -3.67187 -4.31415
ltibia 9.54166e-014
lfoot -18.5458 -13.2117
ltoes -27.5357
296
root 0.707914 16.3171 32.7994 -13.0546 8.5912 -8.92856
lowerback 9.18276 -3.83244 3.28178
upperback 3.212 -4.67792 4.94603
thorax -1.63795 -2.34358 3.77983
lowerneck -20.0965 5.27031 -2.96201
upperneck 23.7387 8.30024 0.463231
head 10.8334 3.57238 1.89603
rclavicle 8.36635e-014 -6.44062e-014
rhumerus -69.1817 -9.27489 -44.642
rradius 23.3795
rwrist 53.3825
rhand -26.6414 -7.58989
rfingers 7.12502
rthumb -0.0737013 -37.5696
lclavicle 8.36635e-014 -6.44062e-014
lhumerus -20.2418 -13.7997 99.1875
lradius 56.4729
lwrist -38.9897
lhand -57.91 -4.72014
lfingers 7.12502
lthumb -30.16 22.838
rfemur -15.9328 -18.8907 22.3393
rtibia 35.1019
rfoot -13.3069 5.90955
rtoes -11.9039
lfemur 38.3631 -4.20506 -3.93353
ltibia 5.64105
lfoot -18.8203 -13.4635
ltoes -29.2982
297
root 0.646946 16.3479 33.0086 -12.846 10.65 -8.74389
lowerback 8.84843 -4.3322 2.36344
upperback 3.06724 -5.43713 5.00942
thorax -1.48268 -2.72985 4.41014
lowerneck -19.8749 6.09885 -2.36098
upperneck 23.8722 9.3883 0.0638478
head 10.8716 4.07037 1.813
rclavicle 5.9623e-014 -2.06736e-014
rhumerus -68.6975 -10.4115 -43.7144
rradius 22.8104
rwrist 55.1294
rhand -26.4069 -7.4926
rfingers 7.12502
rthumb 0.152733 -37.4723
lclavicle 5.9623e-014 -2.06736e-014
lhumerus -20.8798 -12.9822 99.5635
lradius 55.9472
lwrist -38.8163
lhand -57.8625 -4.8314
lfingers 7.12502
lthumb -30.1147 22.735
rfemur -15.6277 -19.0887 21.8889
rtibia 35.5822
rfoot -13.0617 5.86296
rtoes -10.97
lfemur 33.5422 -6.16419 -4.14954
ltibia 14.7467
lfoot -20.1344 -13.9817
ltoes -31.3239
298
root 0.652193 16.3369 33.193 -13.7081 8.99012 -9.48752
lowerback 9.71661 -3.92033 3.93498
upperback 3.394 -4.69753 5.15959
thorax -1.7729 -2.3496 3.67705
lowerneck -19.6563 6.95212 -1.64361
upperneck 23.9863 10.4948 -0.390546
head 10.9261 4.58015 1.69694
rclavicle 3.57812e-015 -4.29375e-014
rhumerus -68.2843 -11.7198 -42.9946
rradius 22.5942
rwrist 56.7173
rhand -26.7996 -7.77468
rfingers 7.12502
rthumb -0.226544 -37.7543
lclavicle 3.57812e-015 -4.29375e-014
lhumerus -143.799 140.794 108.947
lradius 115.544
lwrist -205.687
lhand -64.3977 28.5855
lfingers 7.12502
lthumb -36.3276 54.8208
rfemur -14.2965 -19.5513 22.6428
rtibia 35.8487
rfoot -13.113 7.83536
rtoes -8.8325
lfemur 32.1855 -4.9993 -2.94101
ltibia 21.0633
lfoot -19.9586 -14.3133
ltoes -32.4527
299
root 0.593933 16.3863 33.4071 -13.2166 10.6221 -8.74829
lowerback 8.68496 -4.21089 2.16076
upperback 3.48986 -5.32143 5.27992
thorax -0.914485 -2.68171 4.75787
lowerneck -19.5781 7.81994 -1.08807
upperneck 24.0872 11.7221 -0.987511
head 11.0181 5.10844 1.58364
rclavicle 5.22058e-014 -3.97569e-014
rhumerus -67.062 -12.4039 -43.6277
rradius 22.5056
rwrist 56.1219
rhand -26.7546 -7.92702
rfingers 7.12502
rthumb -0.183061 -37.9067
lclavicle 3.57812e-015 -4.29375e-014
lhumerus -143.799 140.794 108.947
lradius 115.544
lwrist -205.687
lhand -64.3977 28.5855
lfingers 7.12502
lthumb -36.3276 54.8208
rfemur -13.8645 -19.9706 21.7325
rtibia 36.0632
rfoot -13.6933 6.06239
rtoes -9.4427
lfemur 28.8838 -5.70078 -3.22453
ltibia 26.4707
lfoot -18.2739 -15.2835
ltoes -31.3968
300
root 0.597061 16.4022 33.5809 -13.7254 9.62565 -9.74924
lowerback 9.23507 -3.95067 4.10996
upperback 3.61494 -4.76891 5.36994
thorax -1.27085 -2.38358 3.75867
lowerneck -19.2159 8.51581 -0.260325
upperneck 24.2397 12.5639 -1.36504
head 11.0912 5.5181 1.44024
rclavicle -4.98142e-014 3.02153e-014
rhumerus -66.5791 -12.9362 -44.8192
rradius 22.7623
rwrist 55.7772
rhand -26.7064 -8.20441
rfingers 7.12502
rthumb -0.136508 -38.1841
lclavicle 3.57812e-015 -4.29375e-014
lhumerus -143.799 140.794 108.947
lradius 115.544
lwrist -205.687
lhand -64.3977 28.5855
lfingers 7.12502
lthumb -36.3276 54.8208
rfemur -12.8131 -20.6262 22.7916
rtibia 36.0205
rfoot -13.8681 7.43277
rtoes -9.13482
lfemur 27.1944 -4.70797 -1.44624
ltibia 31.5247
lfoot -16.2598 -15.9305
ltoes -28.3099
